<svg width="1200" height="300" viewBox="0 0 1200 300" fill="none" xmlns="http://www.w3.org/2000/svg" role="img" aria-labelledby="title desc">
  <title id="title">Tim Cai</title>
  <desc id="desc">Building AI systems, ML infrastructure, and research tools.</desc>
  <defs>
    <linearGradient id="bg" x1="92" y1="16" x2="1102" y2="290" gradientUnits="userSpaceOnUse">
      <stop stop-color="#0B1220"/>
      <stop offset=".53" stop-color="#101A35"/>
      <stop offset="1" stop-color="#171433"/>
    </linearGradient>
    <linearGradient id="ink" x1="310" y1="82" x2="860" y2="210" gradientUnits="userSpaceOnUse">
      <stop stop-color="#F8FAFC"/>
      <stop offset="1" stop-color="#93C5FD"/>
    </linearGradient>
    <filter id="blur" x="-40" y="-40" width="1280" height="380" filterUnits="userSpaceOnUse">
      <feGaussianBlur stdDeviation="30"/>
    </filter>
  </defs>
  <rect width="1200" height="300" rx="24" fill="url(#bg)"/>
  <g opacity=".6" filter="url(#blur)">
    <circle cx="1010" cy="66" r="106" fill="#1D4ED8"/>
    <circle cx="1094" cy="239" r="112" fill="#6D28D9"/>
    <circle cx="117" cy="252" r="74" fill="#0E7490"/>
  </g>
  <g opacity=".7" stroke="#60A5FA" stroke-width="1.5">
    <path d="M72 222C190 165 236 245 347 191C431 150 461 76 585 106C715 138 720 232 852 205C957 184 1012 101 1141 124"/>
    <circle cx="347" cy="191" r="5" fill="#93C5FD"/>
    <circle cx="585" cy="106" r="5" fill="#93C5FD"/>
    <circle cx="852" cy="205" r="5" fill="#93C5FD"/>
  </g>
  <text x="78" y="112" fill="#93C5FD" font-family="ui-monospace, SFMono-Regular, Menlo, monospace" font-size="18" font-weight="700" letter-spacing="3">TIM CAI / 06</text>
  <text x="78" y="178" fill="url(#ink)" font-family="ui-sans-serif, -apple-system, BlinkMacSystemFont, Segoe UI, sans-serif" font-size="48" font-weight="750" letter-spacing="-1.5">Build systems worth trusting.</text>
  <text x="80" y="222" fill="#CBD5E1" font-family="ui-sans-serif, -apple-system, BlinkMacSystemFont, Segoe UI, sans-serif" font-size="21">AI systems · ML infrastructure · Quant research · Full-stack products</text>
  <rect x="78" y="248" width="234" height="4" rx="2" fill="#60A5FA"/>
</svg>
