<svg width="1200" height="300" viewBox="0 0 1200 300" fill="none" xmlns="http://www.w3.org/2000/svg" role="img" aria-labelledby="title desc">
  <title id="title">Tim Cai</title>
  <desc id="desc">Building AI systems, ML infrastructure, and research tools.</desc>
  <defs>
    <linearGradient id="bg" x1="86" y1="22" x2="1115" y2="288" gradientUnits="userSpaceOnUse">
      <stop stop-color="#F8FAFC"/>
      <stop offset="0.52" stop-color="#EFF6FF"/>
      <stop offset="1" stop-color="#EEF2FF"/>
    </linearGradient>
    <linearGradient id="ink" x1="360" y1="80" x2="850" y2="220" gradientUnits="userSpaceOnUse">
      <stop stop-color="#0F172A"/>
      <stop offset="1" stop-color="#2563EB"/>
    </linearGradient>
    <filter id="blur" x="-40" y="-40" width="1280" height="380" filterUnits="userSpaceOnUse">
      <feGaussianBlur stdDeviation="28"/>
    </filter>
  </defs>
  <rect width="1200" height="300" rx="24" fill="url(#bg)"/>
  <g opacity=".65" filter="url(#blur)">
    <circle cx="1020" cy="62" r="104" fill="#93C5FD"/>
    <circle cx="1080" cy="238" r="114" fill="#C4B5FD"/>
    <circle cx="124" cy="250" r="78" fill="#BFDBFE"/>
  </g>
  <g opacity=".62" stroke="#2563EB" stroke-width="1.5">
    <path d="M72 222C190 165 236 245 347 191C431 150 461 76 585 106C715 138 720 232 852 205C957 184 1012 101 1141 124"/>
    <circle cx="347" cy="191" r="5" fill="#2563EB"/>
    <circle cx="585" cy="106" r="5" fill="#2563EB"/>
    <circle cx="852" cy="205" r="5" fill="#2563EB"/>
  </g>
  <text x="78" y="112" fill="#2563EB" font-family="ui-monospace, SFMono-Regular, Menlo, monospace" font-size="18" font-weight="700" letter-spacing="3">TIM CAI / 06</text>
  <text x="78" y="178" fill="url(#ink)" font-family="ui-sans-serif, -apple-system, BlinkMacSystemFont, Segoe UI, sans-serif" font-size="48" font-weight="750" letter-spacing="-1.5">Build systems worth trusting.</text>
  <text x="80" y="222" fill="#475569" font-family="ui-sans-serif, -apple-system, BlinkMacSystemFont, Segoe UI, sans-serif" font-size="21">AI systems · ML infrastructure · Quant research · Full-stack products</text>
  <rect x="78" y="248" width="234" height="4" rx="2" fill="#2563EB"/>
</svg>
